<svg xmlns="http://www.w3.org/2000/svg" width="700pt" height="700pt" viewBox="0 0 700 700"><path d="M484.4 44.801a33.598 33.598 0 0 0-33.598 33.598V112h-69.215a33.6 33.6 0 0 0-21.848-20.695A33.601 33.601 0 0 0 316.4 123.2v33.602h-56a10.305 10.305 0 0 0-8.512 4.03 10.31 10.31 0 0 0-2.46 8.962l16.129 96.992h-.004A54.887 54.887 0 0 0 294 306.657v33.153a91.413 91.413 0 0 0-37.898 35.434 91.398 91.398 0 0 0-12.5 50.359 89.577 89.577 0 0 0 14.207 54.379 89.582 89.582 0 0 0 43.809 35.219c1.183.215 2.398.215 3.582 0h84c1.187.215 2.398.215 3.586 0a86.905 86.905 0 0 0 58.016-73.696 10.284 10.284 0 0 0 0-4.703c.18-.965.18-1.95 0-2.915v-8.289.004a92.54 92.54 0 0 0-11-47.699 92.55 92.55 0 0 0-33.801-35.406v-35.84a54.888 54.888 0 0 0 28.449-39.87l16.352-96.993a10.3 10.3 0 0 0-2.465-8.96 10.299 10.299 0 0 0-8.735-4.032h-56V134.4h123.2a11.2 11.2 0 0 0 11.2-11.2v-44.8a33.6 33.6 0 0 0-9.84-23.758 33.602 33.602 0 0 0-23.762-9.84zm-96.992 448h-80.414A62.719 62.719 0 0 1 269.139 448h156.8a62.732 62.732 0 0 1-38.531 44.801zm40.992-67.199H266a68.994 68.994 0 0 1 41.441-67.203h79.52a68.987 68.987 0 0 1 31.281 27.09 68.965 68.965 0 0 1 10.156 40.113zm-44.801-112V336H316.4v-22.398zm28.895-50.398.004-.004a33.847 33.847 0 0 1-11.492 20.02 33.836 33.836 0 0 1-21.66 7.98h-58.688a33.833 33.833 0 0 1-21.66-7.98 33.84 33.84 0 0 1-11.492-20.02l-13.887-84h152.77zm-73.691-106.4v-33.602c0-6.184 5.012-11.199 11.199-11.199s11.199 5.016 11.199 11.199v33.602zm156.8-44.801h-22.402V78.401c0-6.184 5.016-11.199 11.199-11.199 6.188 0 11.203 5.016 11.203 11.199z"/></svg>