<svg xmlns="http://www.w3.org/2000/svg" xml:space="preserve" style="enable-background:new 0 0 700 700" viewBox="0 0 700 700"><path d="M539.2 204.8h-50.4c0-27.8-22.6-50.4-50.4-50.4H388v-16.8c0-9.3-7.5-16.8-16.8-16.8s-16.8 7.5-16.8 16.8v16.8H304c-27.8 0-50.4 22.6-50.4 50.4v101c0 31.2-5.7 61.8-17 90.9l-23.2 60h-10.2c-18.5 0-33.6-15.1-33.6-33.6V271.9c0-37.1-30.1-67.2-67.2-67.2-9.3 0-16.8 7.5-16.8 16.8s7.5 16.8 16.8 16.8c18.5 0 33.6 15.1 33.6 33.6v151.2c0 36.1 28.7 65.5 64.5 66.9l-10.4 27c-6.5 16.8-4.2 35.6 5.9 50.5 10.2 14.8 27.1 23.7 45.1 23.7h260.2c18 0 34.9-8.9 45.1-23.7 10.2-14.8 12.4-33.7 5.9-50.5l-46.5-120.2c-11.3-29.1-17-59.7-17-90.9v-67.4h50.4V356c0 9.3 7.5 16.8 16.8 16.8s16.8-7.5 16.8-16.8V238.4c0-18.5-15.1-33.6-33.6-33.6zM521 529.1c2.5 6.5 1.7 13.6-2.3 19.4-4 5.8-10.3 9.1-17.4 9.1H241.1c-7.1 0-13.4-3.3-17.4-9.1-4-5.8-4.8-12.8-2.3-19.3L268 408.9c12.8-33 19.2-67.7 19.2-103.1v-101c0-9.3 7.5-16.8 16.8-16.8h134.4c9.3 0 16.8 7.5 16.8 16.8v101c0 35.4 6.5 70.1 19.2 103.1L521 529.1z"/></svg>